<?xml version="1.0" encoding="UTF-8" standalone="no"?>
<svg
   xmlns:osb="http://www.openswatchbook.org/uri/2009/osb"
   xmlns:dc="http://purl.org/dc/elements/1.1/"
   xmlns:cc="http://creativecommons.org/ns#"
   xmlns:rdf="http://www.w3.org/1999/02/22-rdf-syntax-ns#"
   xmlns:svg="http://www.w3.org/2000/svg"
   xmlns="http://www.w3.org/2000/svg"
   xmlns:sodipodi="http://sodipodi.sourceforge.net/DTD/sodipodi-0.dtd"
   xmlns:inkscape="http://www.inkscape.org/namespaces/inkscape"
   width="64.617271mm"
   height="69.22155mm"
   viewBox="0 0 64.617271 69.22155"
   version="1.1"
   id="svg8"
   sodipodi:docname="logo.svg"
   inkscape:version="1.0.2 (e86c870879, 2021-01-15)">
  <sodipodi:namedview
     pagecolor="#646464"
     bordercolor="#666666"
     borderopacity="1"
     objecttolerance="10"
     gridtolerance="10"
     guidetolerance="10"
     inkscape:pageopacity="0"
     inkscape:pageshadow="2"
     inkscape:window-width="1920"
     inkscape:window-height="1062"
     id="namedview852"
     showgrid="false"
     inkscape:zoom="2.8093672"
     inkscape:cx="122.11138"
     inkscape:cy="130.81238"
     inkscape:window-x="1920"
     inkscape:window-y="18"
     inkscape:window-maximized="0"
     inkscape:current-layer="svg8" />
  <defs
     id="defs2">
    <linearGradient
       id="linearGradient1467"
       osb:paint="solid">
      <stop
         style="stop-color:#000000;stop-opacity:1;"
         offset="0"
         id="stop1465" />
    </linearGradient>
    <linearGradient
       inkscape:collect="always"
       id="linearGradient1451"
       osb:paint="gradient">
      <stop
         style="stop-color:#000000;stop-opacity:1;"
         offset="0"
         id="stop1447" />
      <stop
         style="stop-color:#000000;stop-opacity:0;"
         offset="1"
         id="stop1449" />
    </linearGradient>
    <rect
       x="58.709778"
       y="114.57791"
       width="103.12546"
       height="69.513016"
       id="rect12" />
  </defs>
  <metadata
     id="metadata5">
    <rdf:RDF>
      <cc:Work
         rdf:about="">
        <dc:format>image/svg+xml</dc:format>
        <dc:type
           rdf:resource="http://purl.org/dc/dcmitype/StillImage" />
        <dc:title></dc:title>
      </cc:Work>
    </rdf:RDF>
  </metadata>
  <g
     id="layer1"
     transform="translate(-44.591081,-97.314039)">
    <g
       aria-label="*"
       id="text10"
       style="font-style:normal;font-weight:normal;font-size:10.5833px;line-height:1.25;font-family:sans-serif;letter-spacing:0px;word-spacing:0px;white-space:pre;shape-inside:url(#rect12);fill:#000000;fill-opacity:1;stroke:none"
       transform="matrix(3.6885348,0,0,3.4915822,-183.62947,-365.49236)">
      <path
         d="m 69.823988,132.73402 c -0.669992,0.38682 -0.75164,1.06454 -0.745544,1.16612 -0.101138,1.3721 0.145573,4.80296 0.185419,6.14622 l -4.782718,-2.91393 c -0.548931,-0.31366 -1.120616,-0.66673 -1.869425,-0.2344 -0.157651,0.091 -1.300579,0.75089 -0.390413,2.32734 l 5.659133,3.24871 c -1.070208,0.51278 -3.694103,1.97514 -4.83704,2.63502 -0.354698,0.20478 -1.655269,0.95567 -0.904382,2.25624 0.750887,1.30058 2.051458,0.54969 2.406156,0.34491 1.142937,-0.65988 3.721324,-2.20106 4.700515,-2.87149 l -0.02546,5.68993 c -0.03615,0.75655 0.0094,0.83537 0.168639,1.11125 0.455083,0.78823 1.460292,0.891 2.051467,0.54969 0.748809,-0.43233 0.734981,-1.00238 0.715058,-1.674 l -0.154933,-5.63834 4.782718,2.91394 c 0.548931,0.31365 1.081203,0.68947 1.869425,0.23439 0.157651,-0.091 1.300579,-0.75089 0.390413,-2.32734 l -5.659133,-3.24871 c 1.070209,-0.51278 3.694103,-1.97514 4.837032,-2.63501 0.354706,-0.20479 1.655277,-0.95568 0.90439,-2.25625 -0.750887,-1.30058 -2.051458,-0.54969 -2.406164,-0.3449 -1.142929,0.65987 -3.721316,2.20105 -4.700507,2.87148 -0.04802,-3.17773 0.0057,-1.26443 0.06815,-4.9789 0.01622,-1.42817 -0.02929,-1.50699 -0.211325,-1.82228 -0.455083,-0.78823 -1.460292,-0.891 -2.051467,-0.54969 z"
         style="font-style:normal;font-variant:normal;font-weight:normal;font-stretch:normal;font-size:45.5083px;font-family:'Latin Modern Mono Prop';-inkscape-font-specification:'Latin Modern Mono Prop, Normal';font-variant-ligatures:normal;font-variant-caps:normal;font-variant-numeric:normal;font-variant-east-asian:normal;fill:#ffffff"
         id="path16" />
    </g>
  </g>
  <path
     style="opacity:0.936591;fill:#c7b8ab;stroke:#c7b8ab;stroke-width:1.42381;stroke-linecap:round;stroke-linejoin:round;stroke-opacity:1;fill-opacity:1"
     d="m 117.54686,260.72472 c -6.0863,-1.59435 -10.63858,-5.09388 -13.4147,-10.31245 l -1.42017,-2.66964 0.13586,-42.80324 c 0.0747,-23.54178 0.0335,-42.80323 -0.0917,-42.80323 -0.12515,0 -2.10842,1.17612 -4.407288,2.61361 -14.50564,9.07041 -59.957848,34.9095 -66.010965,37.52652 -12.196461,5.27304 -21.761147,3.2423 -27.8221405,-5.9071 -6.7079444,-10.126 -4.4854908,-19.36567 6.5385535,-27.18349 4.111579,-2.91577 36.146881,-19.93026 58.662083,-31.15643 11.093416,-5.53123 13.894043,-7.06364 13.526178,-7.40109 -0.255157,-0.23407 -17.969189,-9.92342 -39.364513,-21.5319 L 4.977498,87.989951 3.7657347,85.819341 C 3.0992647,84.625507 2.0436494,82.127036 1.4199229,80.267187 -1.3069347,72.136149 0.70391862,64.812425 7.0390612,59.801738 13.155268,54.964215 20.31359,53.755117 27.379666,56.366046 c 4.136947,1.528615 5.437796,2.251361 41.872834,23.264396 17.8154,10.274606 32.7658,18.878846 33.2231,19.120538 l 0.83147,0.43944 -0.21607,-3.499421 c -0.38061,-6.164172 -1.96153,-37.733356 -2.33212,-46.569616 -0.45462,-10.840132 -0.45337,-29.136088 0.002,-32.391637 0.71846,-5.133996 4.13914,-10.2483992 8.92207,-13.3397566 8.01742,-5.1818572 19.90372,-3.91649099 26.67001,2.8391715 2.72877,2.7244733 4.71478,6.2704241 5.38275,9.6107051 0.60712,3.035997 0.56044,22.658836 -0.0957,40.222582 -0.45339,12.136811 -0.5955,42.900718 -0.2,43.29622 0.0977,0.09772 2.07572,-1.009199 4.39556,-2.45981 12.07914,-7.553167 55.30282,-32.290112 64.10943,-36.689868 11.20088,-5.595929 20.93476,-4.893298 27.31456,1.971679 6.79247,7.30902 8.06525,15.974509 3.37743,22.994577 -1.63556,2.449271 -4.78697,5.493013 -7.75806,7.493019 -4.90087,3.299041 -35.52831,19.529275 -58.36808,30.930675 -10.97226,5.47725 -13.88649,7.0714 -13.52618,7.39913 0.25259,0.22975 17.96465,9.91722 39.36012,21.52772 l 38.90086,21.10999 1.21149,2.17012 c 4.52904,8.11279 4.65993,16.40779 0.35125,22.26071 -2.52503,3.43001 -6.42977,6.21025 -10.76089,7.66193 -5.76236,1.93141 -9.78504,1.42908 -16.99052,-2.12164 -2.54506,-1.25416 -19.75487,-11.01407 -38.24402,-21.68871 -18.48915,-10.67462 -33.65761,-19.36744 -33.7077,-19.31736 -0.0501,0.0501 0.37851,15.94382 0.95242,35.31941 1.14626,38.69855 1.25081,46.54138 0.65798,49.35993 -0.67228,3.19629 -2.03906,5.63067 -4.55642,8.11543 -5.25796,5.18986 -13.25322,7.25694 -20.61253,5.32912 z"
     id="path1437"
     transform="scale(0.26458333)" />
</svg>
