<?xml version="1.0" encoding="UTF-8" standalone="no"?>
<svg
   xmlns:dc="http://purl.org/dc/elements/1.1/"
   xmlns:cc="http://creativecommons.org/ns#"
   xmlns:rdf="http://www.w3.org/1999/02/22-rdf-syntax-ns#"
   xmlns:svg="http://www.w3.org/2000/svg"
   xmlns="http://www.w3.org/2000/svg"
   xmlns:sodipodi="http://sodipodi.sourceforge.net/DTD/sodipodi-0.dtd"
   xmlns:inkscape="http://www.inkscape.org/namespaces/inkscape"
   width="64.617271mm"
   height="69.22155mm"
   viewBox="0 0 64.617271 69.22155"
   version="1.1"
   id="svg8"
   sodipodi:docname="safari-pinned-tab.svg"
   inkscape:version="1.0.2 (e86c870879, 2021-01-15)">
  <sodipodi:namedview
     pagecolor="#444444"
     bordercolor="#666666"
     borderopacity="1"
     objecttolerance="10"
     gridtolerance="10"
     guidetolerance="10"
     inkscape:pageopacity="0"
     inkscape:pageshadow="2"
     inkscape:window-width="1920"
     inkscape:window-height="1062"
     id="namedview840"
     showgrid="false"
     inkscape:zoom="3.0081251"
     inkscape:cx="122.11138"
     inkscape:cy="125.01875"
     inkscape:window-x="1920"
     inkscape:window-y="18"
     inkscape:window-maximized="1"
     inkscape:current-layer="svg8" />
  <defs
     id="defs2">
    <rect
       x="58.709778"
       y="114.57791"
       width="103.12546"
       height="69.513016"
       id="rect12" />
  </defs>
  <metadata
     id="metadata5">
    <rdf:RDF>
      <cc:Work
         rdf:about="">
        <dc:format>image/svg+xml</dc:format>
        <dc:type
           rdf:resource="http://purl.org/dc/dcmitype/StillImage" />
        <dc:title></dc:title>
      </cc:Work>
    </rdf:RDF>
  </metadata>
  <g
     id="layer1"
     transform="translate(-44.591081,-97.314039)"
     inkscape:export-filename="/home/itaborala/projetos-2021/itabora.space/favicon.ico.png"
     inkscape:export-xdpi="17.612898"
     inkscape:export-ydpi="17.612898"
     style="fill:#1a1a1a">
    <g
       aria-label="*"
       id="text10"
       style="font-style:normal;font-weight:normal;font-size:10.5833px;line-height:1.25;font-family:sans-serif;letter-spacing:0px;word-spacing:0px;white-space:pre;shape-inside:url(#rect12);fill:#1a1a1a;fill-opacity:1;stroke:none"
       transform="matrix(3.6885348,0,0,3.4915822,-183.62947,-365.49236)">
      <path
         d="m 69.823988,132.73402 c -0.669992,0.38682 -0.75164,1.06454 -0.745544,1.16612 -0.101138,1.3721 0.145573,4.80296 0.185419,6.14622 l -4.782718,-2.91393 c -0.548931,-0.31366 -1.120616,-0.66673 -1.869425,-0.2344 -0.157651,0.091 -1.300579,0.75089 -0.390413,2.32734 l 5.659133,3.24871 c -1.070208,0.51278 -3.694103,1.97514 -4.83704,2.63502 -0.354698,0.20478 -1.655269,0.95567 -0.904382,2.25624 0.750887,1.30058 2.051458,0.54969 2.406156,0.34491 1.142937,-0.65988 3.721324,-2.20106 4.700515,-2.87149 l -0.02546,5.68993 c -0.03615,0.75655 0.0094,0.83537 0.168639,1.11125 0.455083,0.78823 1.460292,0.891 2.051467,0.54969 0.748809,-0.43233 0.734981,-1.00238 0.715058,-1.674 l -0.154933,-5.63834 4.782718,2.91394 c 0.548931,0.31365 1.081203,0.68947 1.869425,0.23439 0.157651,-0.091 1.300579,-0.75089 0.390413,-2.32734 l -5.659133,-3.24871 c 1.070209,-0.51278 3.694103,-1.97514 4.837032,-2.63501 0.354706,-0.20479 1.655277,-0.95568 0.90439,-2.25625 -0.750887,-1.30058 -2.051458,-0.54969 -2.406164,-0.3449 -1.142929,0.65987 -3.721316,2.20105 -4.700507,2.87148 -0.04802,-3.17773 0.0057,-1.26443 0.06815,-4.9789 0.01622,-1.42817 -0.02929,-1.50699 -0.211325,-1.82228 -0.455083,-0.78823 -1.460292,-0.891 -2.051467,-0.54969 z"
         style="font-style:normal;font-variant:normal;font-weight:normal;font-stretch:normal;font-size:45.5083px;font-family:'Latin Modern Mono Prop';-inkscape-font-specification:'Latin Modern Mono Prop, Normal';font-variant-ligatures:normal;font-variant-caps:normal;font-variant-numeric:normal;font-variant-east-asian:normal;fill:#1a1a1a"
         id="path16" />
    </g>
  </g>
</svg>
